<svg width="1200" height="630" viewBox="0 0 1200 630" fill="none" xmlns="http://www.w3.org/2000/svg">
  <defs>
    <linearGradient id="bgGrad2" x1="0%" y1="0%" x2="100%" y2="100%">
      <stop offset="0%" style="stop-color:#0f0f0f"/>
      <stop offset="100%" style="stop-color:#1a1a1a"/>
    </linearGradient>
    <linearGradient id="blueGrad" x1="0%" y1="0%" x2="100%" y2="100%">
      <stop offset="0%" style="stop-color:#3b82f6"/>
      <stop offset="100%" style="stop-color:#2563eb"/>
    </linearGradient>
    <linearGradient id="purpleGrad" x1="0%" y1="0%" x2="100%" y2="100%">
      <stop offset="0%" style="stop-color:#8b5cf6"/>
      <stop offset="100%" style="stop-color:#7c3aed"/>
    </linearGradient>
    <linearGradient id="greenGrad" x1="0%" y1="0%" x2="100%" y2="100%">
      <stop offset="0%" style="stop-color:#10b981"/>
      <stop offset="100%" style="stop-color:#059669"/>
    </linearGradient>
    <filter id="cardShadow" x="-10%" y="-10%" width="120%" height="130%">
      <feDropShadow dx="0" dy="4" stdDeviation="12" flood-color="#000" flood-opacity="0.4"/>
    </filter>
  </defs>

  <!-- Background -->
  <rect width="1200" height="630" fill="url(#bgGrad2)"/>

  <!-- Decorative circles -->
  <circle cx="100" cy="100" r="200" fill="#3b82f6" opacity="0.05"/>
  <circle cx="1100" cy="530" r="250" fill="#8b5cf6" opacity="0.05"/>

  <!-- Header -->
  <text x="600" y="80" font-family="system-ui, -apple-system, sans-serif" font-size="42" fill="#fff" text-anchor="middle" font-weight="700">
    <tspan>📋</tspan> DittoClip Features
  </text>

  <!-- Feature Cards Row 1 -->
  <!-- Card 1: Clipboard History -->
  <g filter="url(#cardShadow)" transform="translate(60, 130)">
    <rect width="340" height="200" rx="16" fill="#1e1e1e" stroke="#333" stroke-width="1"/>
    <rect x="24" y="24" width="56" height="56" rx="14" fill="url(#blueGrad)"/>
    <g transform="translate(36, 36)">
      <circle cx="16" cy="16" r="12" fill="none" stroke="#fff" stroke-width="2"/>
      <path d="M16 10v8l5 3" stroke="#fff" stroke-width="2" stroke-linecap="round"/>
    </g>
    <text x="24" y="116" font-family="system-ui, -apple-system, sans-serif" font-size="20" fill="#fff" font-weight="600">Automatic History</text>
    <text x="24" y="145" font-family="system-ui, -apple-system, sans-serif" font-size="14" fill="#888">
      <tspan x="24">Everything you copy is saved</tspan>
      <tspan x="24" dy="20">automatically. Text, images, links.</tspan>
    </text>
  </g>

  <!-- Card 2: Search -->
  <g filter="url(#cardShadow)" transform="translate(430, 130)">
    <rect width="340" height="200" rx="16" fill="#1e1e1e" stroke="#333" stroke-width="1"/>
    <rect x="24" y="24" width="56" height="56" rx="14" fill="url(#purpleGrad)"/>
    <g transform="translate(36, 36)">
      <circle cx="14" cy="14" r="10" fill="none" stroke="#fff" stroke-width="2"/>
      <line x1="21" y1="21" x2="28" y2="28" stroke="#fff" stroke-width="2" stroke-linecap="round"/>
    </g>
    <text x="24" y="116" font-family="system-ui, -apple-system, sans-serif" font-size="20" fill="#fff" font-weight="600">Lightning Search</text>
    <text x="24" y="145" font-family="system-ui, -apple-system, sans-serif" font-size="14" fill="#888">
      <tspan x="24">Find anything instantly. Filter</tspan>
      <tspan x="24" dy="20">through hundreds of items.</tspan>
    </text>
  </g>

  <!-- Card 3: Global Hotkey -->
  <g filter="url(#cardShadow)" transform="translate(800, 130)">
    <rect width="340" height="200" rx="16" fill="#1e1e1e" stroke="#333" stroke-width="1"/>
    <rect x="24" y="24" width="56" height="56" rx="14" fill="url(#greenGrad)"/>
    <g transform="translate(32, 32)">
      <rect x="4" y="8" width="36" height="24" rx="4" fill="none" stroke="#fff" stroke-width="2"/>
      <text x="22" y="25" font-family="system-ui, -apple-system, sans-serif" font-size="12" fill="#fff" text-anchor="middle" font-weight="600">⌃⇧V</text>
    </g>
    <text x="24" y="116" font-family="system-ui, -apple-system, sans-serif" font-size="20" fill="#fff" font-weight="600">Global Hotkey</text>
    <text x="24" y="145" font-family="system-ui, -apple-system, sans-serif" font-size="14" fill="#888">
      <tspan x="24">Access from any app with</tspan>
      <tspan x="24" dy="20">Ctrl+Shift+V. No mouse needed.</tspan>
    </text>
  </g>

  <!-- Feature Cards Row 2 -->
  <!-- Card 4: Image Support -->
  <g filter="url(#cardShadow)" transform="translate(60, 360)">
    <rect width="340" height="200" rx="16" fill="#1e1e1e" stroke="#333" stroke-width="1"/>
    <rect x="24" y="24" width="56" height="56" rx="14" fill="url(#purpleGrad)"/>
    <g transform="translate(36, 36)">
      <rect x="2" y="2" width="28" height="28" rx="4" fill="none" stroke="#fff" stroke-width="2"/>
      <circle cx="10" cy="12" r="3" fill="#fff"/>
      <path d="M28 22l-8-8-12 12" stroke="#fff" stroke-width="2" stroke-linecap="round"/>
    </g>
    <text x="24" y="116" font-family="system-ui, -apple-system, sans-serif" font-size="20" fill="#fff" font-weight="600">Image Support</text>
    <text x="24" y="145" font-family="system-ui, -apple-system, sans-serif" font-size="14" fill="#888">
      <tspan x="24">Screenshots and images are</tspan>
      <tspan x="24" dy="20">saved with thumbnail previews.</tspan>
    </text>
  </g>

  <!-- Card 5: Privacy -->
  <g filter="url(#cardShadow)" transform="translate(430, 360)">
    <rect width="340" height="200" rx="16" fill="#1e1e1e" stroke="#333" stroke-width="1"/>
    <rect x="24" y="24" width="56" height="56" rx="14" fill="url(#greenGrad)"/>
    <g transform="translate(36, 36)">
      <path d="M16 2l-12 5v7c0 8 12 14 12 14s12-6 12-14v-7l-12-5z" fill="none" stroke="#fff" stroke-width="2"/>
      <polyline points="10,16 14,20 22,12" fill="none" stroke="#fff" stroke-width="2"/>
    </g>
    <text x="24" y="116" font-family="system-ui, -apple-system, sans-serif" font-size="20" fill="#fff" font-weight="600">Privacy First</text>
    <text x="24" y="145" font-family="system-ui, -apple-system, sans-serif" font-size="14" fill="#888">
      <tspan x="24">100% offline. No accounts,</tspan>
      <tspan x="24" dy="20">no cloud, no tracking.</tspan>
    </text>
  </g>

  <!-- Card 6: Native -->
  <g filter="url(#cardShadow)" transform="translate(800, 360)">
    <rect width="340" height="200" rx="16" fill="#1e1e1e" stroke="#333" stroke-width="1"/>
    <rect x="24" y="24" width="56" height="56" rx="14" fill="url(#blueGrad)"/>
    <g transform="translate(36, 36)">
      <polygon points="16,2 2,14 8,14 8,30 24,30 24,14 30,14" fill="none" stroke="#fff" stroke-width="2"/>
    </g>
    <text x="24" y="116" font-family="system-ui, -apple-system, sans-serif" font-size="20" fill="#fff" font-weight="600">Native Performance</text>
    <text x="24" y="145" font-family="system-ui, -apple-system, sans-serif" font-size="14" fill="#888">
      <tspan x="24">Built with Swift &amp; AppKit.</tspan>
      <tspan x="24" dy="20">Lightweight, fast, feels native.</tspan>
    </text>
  </g>

  <!-- Bottom tagline -->
  <text x="600" y="600" font-family="system-ui, -apple-system, sans-serif" font-size="16" fill="#666" text-anchor="middle">macOS 13.0+ • Universal Binary • ~2 MB</text>
</svg>